<?xml version="1.0" standalone="no"?>
<!DOCTYPE svg PUBLIC "-//W3C//DTD SVG 20010904//EN"
 "http://www.w3.org/TR/2001/REC-SVG-20010904/DTD/svg10.dtd">
<svg version="1.0" xmlns="http://www.w3.org/2000/svg"
 width="1080.000000pt" height="1080.000000pt" viewBox="0 0 1080.000000 1080.000000"
 preserveAspectRatio="xMidYMid meet">

<g transform="translate(0.000000,1080.000000) scale(0.100000,-0.100000)"
fill="#000000" stroke="none">
<path d="M5665 8736 c-174 -39 -302 -139 -372 -291 -23 -52 -27 -75 -30 -172
-2 -99 -6 -117 -28 -155 -15 -24 -300 -518 -635 -1098 l-609 -1055 136 -3 c75
-1 140 1 144 5 4 4 256 438 559 963 303 525 555 959 559 963 4 4 25 -8 47 -27
21 -20 80 -57 129 -82 165 -85 306 -199 391 -314 l63 -84 -46 -86 c-26 -47
-206 -361 -400 -698 -195 -337 -357 -620 -360 -628 -4 -12 16 -14 133 -14
l139 0 273 473 c353 609 378 651 386 639 10 -16 24 -139 31 -272 8 -137 38
-294 80 -410 29 -80 120 -266 162 -334 22 -34 24 -44 15 -68 l-10 -28 229 0
c126 0 229 2 229 4 0 3 -22 32 -50 65 -102 123 -202 295 -253 438 -51 140 -69
232 -77 393 -4 85 -16 191 -25 235 -57 268 -186 515 -365 693 -111 111 -214
187 -360 266 -84 46 -120 71 -134 95 -75 129 7 271 157 271 35 0 123 -37 208
-87 264 -155 502 -381 637 -604 171 -281 246 -542 267 -924 11 -195 74 -361
202 -533 67 -89 212 -237 277 -281 l45 -31 308 0 308 0 -25 25 c-14 14 -90 59
-169 100 -195 102 -271 155 -372 257 -92 92 -137 154 -188 256 -43 86 -58 155
-65 302 -10 211 -48 403 -118 605 -35 100 -165 362 -217 440 -112 166 -292
356 -456 484 -131 102 -132 103 -227 159 -217 130 -386 178 -523 148z"/>
<path d="M1735 5689 c-81 -12 -176 -60 -220 -111 -91 -107 -86 -285 12 -389
54 -58 132 -98 253 -129 138 -37 168 -60 155 -122 -5 -21 -16 -34 -41 -44 -81
-34 -152 -4 -194 83 l-25 52 -80 0 c-44 1 -103 -2 -131 -5 l-52 -7 5 -41 c8
-72 46 -178 78 -220 66 -86 169 -126 331 -126 139 0 214 23 286 89 89 81 125
187 108 312 -22 156 -123 240 -363 300 -88 22 -137 48 -137 74 0 28 31 45 82
45 44 0 54 -4 84 -34 19 -19 34 -41 34 -50 0 -20 11 -20 150 4 63 11 118 20
122 20 17 0 -26 121 -64 177 -64 95 -228 146 -393 122z"/>
<path d="M2626 5689 c-171 -25 -303 -148 -352 -330 -21 -81 -28 -224 -15 -316
39 -270 199 -413 461 -413 118 0 199 22 275 75 55 37 120 121 150 190 26 62
45 178 45 273 -1 296 -146 491 -390 522 -86 11 -93 11 -174 -1z m174 -281 c35
-18 51 -35 70 -73 22 -45 25 -62 25 -165 0 -88 -4 -126 -18 -163 -26 -66 -73
-100 -145 -105 -80 -5 -118 18 -157 93 -28 54 -30 66 -30 164 0 116 12 164 53
213 51 60 127 74 202 36z"/>
<path d="M4451 5658 c-5 -13 -83 -245 -174 -515 l-166 -493 148 0 148 0 24 83
24 82 140 0 139 0 24 -82 25 -83 148 0 c82 0 149 3 149 8 0 4 -78 234 -173
512 l-173 505 -137 3 c-135 3 -137 2 -146 -20z m174 -469 c35 -111 35 -109
-30 -109 -36 0 -55 4 -55 12 0 13 53 178 57 178 1 0 14 -36 28 -81z"/>
<path d="M6973 5303 c3 -319 6 -386 20 -427 34 -99 97 -168 192 -213 57 -27
67 -28 205 -28 136 0 149 2 201 26 105 50 164 134 188 270 7 40 11 198 11 407
l0 342 -140 0 -139 0 -3 -347 c-3 -378 -5 -391 -59 -419 -40 -20 -108 -18
-146 6 -51 31 -55 60 -60 428 l-5 332 -135 0 -134 0 4 -377z"/>
<path d="M7917 5673 c-4 -3 -7 -235 -7 -515 l0 -509 303 3 302 3 55 26 c72 35
107 70 139 138 22 47 26 70 26 141 0 72 -4 92 -25 130 -14 25 -46 60 -72 80
l-47 34 43 46 c79 85 84 212 12 310 -44 61 -111 96 -209 109 -85 12 -509 15
-520 4z m446 -253 c23 0 57 -36 57 -60 0 -11 -9 -29 -20 -40 -17 -17 -33 -20
-115 -20 l-95 0 0 66 0 66 78 -5 c42 -4 85 -6 95 -7z m-14 -370 c34 -5 72 -16
82 -26 25 -23 24 -68 -2 -92 -26 -25 -62 -32 -160 -32 l-79 0 0 73 c0 41 3 77
7 80 9 10 76 8 152 -3z"/>
<path d="M8820 5165 l0 -515 375 0 376 0 -3 128 -3 127 -237 3 -238 2 0 70 0
70 215 0 215 0 0 125 0 125 -212 2 -213 3 -3 58 -3 57 231 0 230 0 0 130 0
130 -365 0 -365 0 0 -515z"/>
<path d="M3260 5160 l0 -510 135 0 135 0 0 248 c1 223 2 245 16 227 8 -11 74
-122 145 -247 l130 -228 135 0 134 0 0 510 0 510 -130 0 -130 0 0 -257 c0
-161 -4 -253 -9 -247 -6 5 -75 119 -154 254 l-143 245 -132 3 -132 3 0 -511z"/>
<path d="M5110 5160 l0 -510 135 0 135 0 0 190 c0 185 1 190 21 190 52 0 81
-37 189 -242 l72 -138 159 0 c87 0 159 2 159 5 0 23 -162 330 -198 373 l-45
56 24 15 c13 8 45 36 71 63 61 61 82 128 76 238 -7 125 -72 219 -177 255 -36
12 -100 15 -333 15 l-288 0 0 -510z m480 257 c34 -17 47 -57 30 -96 -15 -37
-28 -41 -145 -44 l-90 -2 -3 78 -3 77 93 0 c55 0 103 -5 118 -13z"/>
<path d="M6010 5160 l0 -510 135 0 135 0 0 144 0 144 46 56 c25 31 49 56 53
56 4 0 51 -90 105 -200 l97 -200 170 0 c93 0 169 3 169 6 0 3 -76 143 -169
312 -93 169 -171 312 -173 318 -2 6 60 91 137 189 77 99 142 183 143 187 2 4
-73 8 -167 8 l-170 0 -118 -171 -118 -171 -3 171 -2 171 -135 0 -135 0 0 -510z"/>
<path d="M2740 3800 c-133 -230 -215 -372 -364 -631 -54 -95 -57 -98 -133
-139 -42 -24 -100 -66 -127 -94 -219 -224 -166 -627 105 -798 30 -19 298 -175
596 -347 340 -196 569 -322 615 -338 129 -45 241 -41 355 12 29 13 192 116
361 228 337 223 352 237 352 321 0 57 -19 97 -62 129 -41 30 -79 40 -125 31
-23 -4 -151 -83 -348 -214 -171 -114 -326 -210 -344 -213 -21 -4 -51 0 -84 11
-51 17 -1133 637 -1171 670 -31 28 -56 93 -56 150 0 100 60 173 163 194 46 10
62 9 96 -4 39 -16 622 -348 824 -470 117 -71 146 -81 201 -67 25 6 160 90 342
212 369 248 1050 702 1821 1215 l583 387 -291 3 -290 2 -121 -80 c-66 -44
-123 -78 -126 -76 -2 3 14 37 37 75 22 38 41 72 41 75 0 3 -62 6 -138 6 l-138
0 -138 -240 -138 -239 -745 -496 c-410 -273 -747 -494 -750 -491 -3 3 61 119
142 258 335 573 470 807 507 875 21 40 72 130 113 200 l74 128 -136 3 c-75 1
-140 -1 -144 -5 -10 -11 -654 -1118 -756 -1300 l-18 -33 -301 174 c-165 95
-324 181 -352 190 -29 10 -52 21 -52 25 0 5 8 19 18 32 20 26 172 287 172 295
0 3 79 142 175 309 96 166 175 306 175 309 0 3 -62 6 -137 6 l-138 0 -145
-250z"/>
<path d="M6360 3564 c-399 -267 -779 -522 -845 -566 -148 -100 -168 -122 -173
-197 -3 -46 0 -62 20 -90 50 -73 132 -100 199 -66 19 10 414 272 879 583 1072
717 1182 791 1200 808 12 12 -28 14 -271 14 l-285 0 -724 -486z"/>
</g>
</svg>
